<?xml version="1.0" standalone="no"?>
<!DOCTYPE svg PUBLIC "-//W3C//DTD SVG 1.1//EN" "http://www.w3.org/Graphics/SVG/1.1/DTD/svg11.dtd" >
<!--
2013-9-30: Created.
-->
<svg>
<metadata>
Created by iconfont
</metadata>
<defs>

<font id="iconfont" horiz-adv-x="1024" >
  <font-face
    font-family="iconfont"
    font-weight="500"
    font-stretch="normal"
    units-per-em="1024"
    ascent="896"
    descent="-128"
  />
    <missing-glyph />
    
    <glyph glyph-name="weixin" unicode="&#58959;" d="M810.2144 21.361408c-10.04032-6.554624 13.918208-66.758656 13.918208-66.758656s-67.504128 39.979008-78.952448 36.421632c-26.983424-8.385536-56.30976-12.981248-86.97344-12.981248-133.271552 0-241.308672 86.847488-241.308672 193.980416 0 107.134976 108.03712 193.982464 241.308672 193.982464s241.308672-86.847488 241.308672-193.982464C899.515392 111.206144 864.699392 56.925952 810.2144 21.361408zM574.138368 274.798336c-17.1008 0-30.964736-13.625344-30.964736-30.429184 0-16.802816 13.863936-30.427136 30.964736-30.427136 17.102848 0 30.96576 13.62432 30.96576 30.427136C605.105152 261.172992 591.241216 274.798336 574.138368 274.798336zM745.807872 274.798336c-17.1008 0-30.964736-13.625344-30.964736-30.429184 0-16.802816 13.863936-30.427136 30.964736-30.427136s30.964736 13.62432 30.964736 30.427136C776.771584 261.172992 762.908672 274.798336 745.807872 274.798336zM397.663232 171.187968c0-23.242752 4.72064-45.595648 13.402112-66.492416-34.27328 0.592896-67.129344 5.82656-97.445888 15.246336-13.64992 4.243456-94.133248-43.426816-94.133248-43.426816s28.565504 71.781376 16.592896 79.594496c-64.961536 42.407936-106.473472 107.12576-106.473472 179.637248 0 127.734784 128.813056 231.284736 287.712256 231.284736 140.880896 0 257.900544-81.455104 282.676224-188.936192-13.513728 1.73568-27.281408 2.844672-41.403392 2.844672C514.4832 380.941056 397.663232 287.03104 397.663232 171.187968zM324.588544 454.976256c-21.520384 0-38.966272-17.142784-38.966272-38.289408 0-21.147648 17.445888-38.29248 38.966272-38.29248 21.522432 0 38.96832 17.144832 38.96832 38.29248C363.55584 437.833472 346.110976 454.976256 324.588544 454.976256zM504.144896 454.976256c-21.520384 0-38.96832-17.142784-38.96832-38.289408 0-21.147648 17.446912-38.29248 38.96832-38.29248s38.96832 17.144832 38.96832 38.29248C543.113216 437.833472 525.666304 454.976256 504.144896 454.976256z"  horiz-adv-x="1024" />

    
    <glyph glyph-name="zhifubao" unicode="&#58955;" d="M655.129326 282.302807C726.316645 409.425066 751.741711 531.459446 751.741711 531.459446l-12.710486 0 0 0L629.7104 531.459446l-114.405633 0L515.304767 617.896074l279.657304 0 0 38.139645L515.304767 656.03572 515.304767 790.780587 388.182508 790.780587l0-134.744867-254.240425 0 0-38.139645 254.240425 0 0-88.98159L169.535743 528.914484l0-38.134529 439.833377 0c0-7.627724 0-7.627724-7.628748-12.707416 0-45.769416-33.045627-109.327988-58.471716-160.178119-325.425697 127.124306-419.497213 50.847062-444.920232 38.139645-216.10078-152.546302-12.709463-343.225085 20.342304-338.142324 228.814336-50.843992 376.268666 45.769416 477.966882 165.257811 7.627724-7.628748 12.71151-7.628748 20.338211-7.628748 71.185272-38.134529 406.782633-198.301392 406.782633-198.301392l0 190.672644C972.930369 172.983006 787.335371 236.5426 655.129326 282.302807L655.129326 282.302807zM489.878678 223.833137C329.709769 20.438751 139.028938 83.997322 108.523157 96.708831c-76.273151 20.342304-101.698217 160.170956-7.627724 203.39234 160.168909 50.847062 300.001655-7.624654 401.693732-58.474786C494.960417 231.459838 489.878678 223.833137 489.878678 223.833137L489.878678 223.833137z"  horiz-adv-x="1024" />

    
    <glyph glyph-name="weixinfill" unicode="&#58886;" d="M692.699238 559.112294c11.619123 0 23.117414-0.831898 34.517504-2.108006C696.19497 701.4500350000001 541.769728 808.7724029999999 365.488742 808.7724029999999 168.405197 808.7724029999999 6.977229 674.464461 6.977229 503.892582c0-98.493235 53.707366-179.306803 143.459123-242.033357l-35.857101-107.840102 125.329408 62.837146c44.84311-8.861798 80.827085-18.002022 125.578138-18.002022 11.250688 0 22.40215 0.561766 33.469645 1.428582-7.001702 23.95351-11.06647 49.054208-11.06647 75.120947C387.891917 432.023757 522.3936 559.112294 692.699238 559.112294zM497.405542 663.593882c30.611456 0 55.425536-24.815206 55.425536-55.427379s-24.814182-55.426355-55.425536-55.426355c-30.613504 0-55.427584 24.815206-55.427584 55.426355S466.794086 663.593882 497.405542 663.593882zM246.567526 551.622656c-30.611456 0-55.427584 24.815206-55.427584 55.426355 0 30.611149 24.81623 55.426355 55.427584 55.426355 30.613504 0 55.428608-24.815206 55.428608-55.426355C301.996134 576.438886 277.18103 551.622656 246.567526 551.622656zM1017.379942 278.544179c0 143.330406-143.423283 260.165325-304.515686 260.165325-170.58089 0-304.924979-116.834918-304.924979-260.165325 0-143.57801 134.34409-260.158157 304.924979-260.158157 35.697459 0 71.712154 9.0112 107.569254 17.99895l98.340659-53.861683-26.969293 89.592525C963.769856 126.10232299999996 1017.379942 197.69077800000002 1017.379942 278.544179zM619.184947 318.72430099999997c-21.799322 0-39.469466 17.673523-39.469466 39.471002 0 21.799526 17.671168 39.468954 39.469466 39.468954s39.469466-17.670451 39.469466-39.468954C658.656563 336.3968 640.983347 318.72430099999997 619.184947 318.72430099999997zM816.270541 316.485325c-21.80137 0-39.47049 17.672499-39.47049 39.468954 0 21.80055 17.670144 39.468954 39.47049 39.468954 21.798298 0 39.469466-17.669427 39.469466-39.468954C855.741133 334.157824 838.068941 316.485325 816.270541 316.485325z"  horiz-adv-x="1024" />

    
    <glyph glyph-name="arrow-down1" unicode="&#58887;" d="M519.406 253.826c-7.241-7.99-17.58-7.897-24.782 0.334l-270.569 309.222c-7.759 8.866-21.236 9.765-30.103 2.007-8.866-7.759-9.765-21.236-2.007-30.103l270.569-309.222c24-27.429 64.128-27.792 88.507-0.89l280.786 309.833c7.913 8.73 7.248 22.222-1.482 30.133-8.73 7.913-22.222 7.248-30.133-1.482l-280.786-309.833z"  horiz-adv-x="1024" />

    
    <glyph glyph-name="arrow-up" unicode="&#58888;" d="M509.927514 508.840919C517.168621 516.831106 527.507586 516.7375529999999 534.709532 508.506756L805.278364 199.28523499999994C813.036915 190.418321 826.514517 189.519814 835.381431 197.278364 844.248346 205.03691500000002 845.146852 218.51451699999996 837.388303 227.38143100000002L566.819471 536.6029550000001C542.819471 564.031526 502.692194 564.39462 478.31207 537.492414L197.525612 227.65908100000001C189.61372 218.928717 190.277222 205.437504 199.007586 197.52561100000003 207.737949 189.61371899999995 221.229163 190.27722200000005 229.141056 199.00758599999995L509.927514 508.840919Z"  horiz-adv-x="1024" />

    
    <glyph glyph-name="gantanhao" unicode="&#58897;" d="M512.001 853.472c-258.861 0-469.472-210.623-469.472-469.473s210.61-469.471 469.472-469.471 469.47 210.621 469.47 469.471S770.862 853.472 512.001 853.472m0-865.78c-218.52 0-396.308 177.79-396.308 396.307 0 218.518 177.788 396.308 396.308 396.308 218.517 0 396.305-177.79 396.305-396.308 0-218.517-177.788-396.307-396.305-396.307M512.001 570.0899999999999c-20.196 0-36.584-16.528-36.584-36.75 0-20.195 16.388-36.581 36.584-36.581 20.193 0 36.581 16.386 36.581 36.581v0.335c0 20.195-16.388 36.415-36.581 36.415M512.001 439.574c-20.196 0-36.584-16.361-36.584-36.583v-193.08c0-20.22 16.388-36.581 36.584-36.581 20.193 0 36.581 16.361 36.581 36.581v193.08c0 20.222-16.388 36.583-36.581 36.583"  horiz-adv-x="1024" />

    
    <glyph glyph-name="qq" unicode="&#58988;" d="M873 124q-10-2-26.5 17T814 198q-22-81-77-135 33-9 53-24.5t20-35.5q-1-29-41-48.5T669-65q-45 0-79.5 11.5T538-23q-13-1-27-1-15 0-31 1-16-19-50.5-30.5T350-65q-61 0-100.5 19.5T208 3q1 20 22 36.5t57 24.5q-55 54-77 134-16-38-33-57t-27-18q-13 2-21 36t-2 92q5 40 22.5 78t39.5 55q0 9 1 18 4 37 11 63t22 30q-6 26-6 53 4 121 88.5 201.5T512 833q121-3 205.5-83.5T806 548q0-27-6-53h1q12-2 21.5-28.5T837 402q1-10 0-19 22-19 38.5-56t21.5-75q6-58-2.5-92T873 124z"  horiz-adv-x="1024" />

    
    <glyph glyph-name="zhifubao1" unicode="&#58903;" d="M492.1 243.6C351.8 65.4 184.6 121.1 157.9 132.2c-66.8 17.8-89.1 140.4-6.7 178.2 140.4 44.6 262.9-6.7 352-51.2-6.6-8.9-11.1-15.6-11.1-15.6z m144.8 51.3c62.4 111.4 84.7 218.4 84.7 218.4H514.4V589h245.1v33.4H514.4V740.5H403v-118.1H180.2V589H403v-78H211.4v-33.4h385.5c0-6.7 0-6.7-3.3-29s-32.3-78-54.6-122.5c-285.3 111.4-367.7 44.5-390 33.4C-19.7 225.2 91.8 71 231.3 50.4c139.4-20.7 265.3 52.9 354.4 157.6 17.8-6.7 49-23.4 138.1-66.8C812.9 97.7 960 27.5 960 27.5V194.6c-44.6 4.5-207.2 60.2-323.1 100.3z"  horiz-adv-x="1024" />

    
    <glyph glyph-name="hongsegantanhao" unicode="&#58900;" d="M512 384m-512 0a512 512 0 1 1 1024 0 512 512 0 1 1-1024 0ZM512.036571 90.660571a63.670857 63.670857 0 0 0-58.514285 67.693715 63.670857 63.670857 0 0 0 58.514285 67.693714 63.670857 63.670857 0 0 0 58.514286-67.693714 63.670857 63.670857 0 0 0-58.514286-67.693715z m-19.163428 586.715429h38.253714a42.422857 42.422857 0 0 0 39.094857-45.129143v-2.56l-15.616-315.904a42.020571 42.020571 0 0 0-39.058285-42.569143h-7.094858a42.020571 42.020571 0 0 0-39.058285 42.569143l-15.579429 315.904a43.300571 43.300571 0 0 0 36.827429 47.542857z"  horiz-adv-x="1024" />

    
    <glyph glyph-name="youjian" unicode="&#58889;" d="M870.4 665.6h-768c-38.4 0-64-25.6-64-64v-512c0-38.4 25.6-64 64-64h768c38.4 0 64 25.6 64 64v512c0 32-25.6 64-64 64z m-51.2-64l-332.8-224-345.6 224h678.4z m51.2-480c0-19.2-12.8-32-32-32h-704c-19.2 0-32 12.8-32 32V544l384-243.2 57.6 38.4 326.4 217.6v-435.2z"  horiz-adv-x="1024" />

    
    <glyph glyph-name="yanjingbukejian-" unicode="&#59097;" d="M512 384m-117.333333 0a117.333333 117.333333 0 1 1 234.666666 0 117.333333 117.333333 0 1 1-234.666666 0ZM886.613333 758.613333a32 32 0 0 0 7.253334-34.176 31.146667 31.146667 0 0 1-11.114667-7.189333l-704-704c-3.264-3.242667-5.674667-7.04-7.253333-11.093333a32 32 0 0 0-36.330667 50.026666l2.197333 2.453334 124.266667 124.224c-63.701333 41.429333-118.4 99.434667-160.32 170.773333a64 64 0 0 0 0.085333 64.96C192.064 568.064 342.229333 661.333333 512 661.333333c67.157333 0 131.477333-14.592 190.357333-41.728l139.008 139.029334a32 32 0 0 0 45.269334 0z m35.776-339.370666a64 64 0 0 0-0.085333-66.901334C828.565333 199.914667 674.986667 106.666667 505.28 106.666667c-43.285333 0-85.141333 6.058667-124.970667 17.642666l111.68 111.68a149.333333 149.333333 0 0 1 168.021334 168l148.352 148.373334c43.797333-36.48 82.346667-81.301333 114.026666-133.12zM512 533.333333a149.333333 149.333333 0 0 1-125.781333-229.866666l47.189333 47.210666a85.333333 85.333333 0 0 0 111.893333 111.893334l47.232 47.210666A148.629333 148.629333 0 0 1 512 533.333333z"  horiz-adv-x="1024" />

    
    <glyph glyph-name="shouji" unicode="&#58923;" d="M768 91.428571V822.857143H256v-877.714286h512-512v146.285714h512zM219.428571 896h585.142858a36.571429 36.571429 0 0 0 36.571428-36.571429v-950.857142a36.571429 36.571429 0 0 0-36.571428-36.571429h-585.142858a36.571429 36.571429 0 0 0-36.571428 36.571429V859.428571A36.571429 36.571429 0 0 0 219.428571 896zM475.428571 18.285714m36.571429 0l0 0q36.571429 0 36.571429-36.571428l0 0q0-36.571429-36.571429-36.571429l0 0q-36.571429 0-36.571429 36.571429l0 0q0 36.571429 36.571429 36.571428Z"  horiz-adv-x="1024" />

    
    <glyph glyph-name="yanjing_unactive" unicode="&#58890;" d="M516.608 481.85856c-62.47936 0-117.15072-50.7648-117.15072-117.15072 0-62.47936 50.7648-117.15072 117.15072-117.15072s117.15072 50.7648 117.15072 117.15072-54.67136 117.15072-117.15072 117.15072z m-3.90656 156.19584c-195.24608 0-367.06816-93.7216-472.4992-265.53856 109.3376-171.81696 281.15968-281.15968 472.4992-281.15968 195.24608 0 367.06816 113.24416 472.4992 285.06112-105.43104 171.82208-277.25312 261.63712-472.4992 261.63712z m3.90656-468.59264c-109.3376 0-199.15264 89.81504-199.15264 199.15264S407.26528 567.76704 516.608 567.76704s195.24608-93.7216 195.24608-203.0592-85.90848-195.24608-195.24608-195.24608z"  horiz-adv-x="1024" />

    
    <glyph glyph-name="arrow-right" unicode="&#58883;" d="M685.9165782928468 136.45768547058128l-43.47882270812985-45.0052356719971-304.35253143310564 302.82689094543434 304.3525314331052 302.8268909454348 43.47882270812992-45.00523567199704-256.29678726196283-257.82242774963396z"  horiz-adv-x="1024" />

    
    <glyph glyph-name="down" unicode="&#58885;" d="M624.981 384.133l-292.155-292.16c-12.28-12.27-12.28-32.186 0-44.457 12.27-12.28099999 32.186-12.281 44.457 0l314.388 314.388c12.28 12.27 12.28 32.186 0 44.457l-314.388 314.387c-6.136 6.14-14.183 9.211-22.228 9.211s-16.092-3.071-22.228-9.21099999c-12.28-12.27-12.28-32.186-1e-8-44.45700001l292.15500001-292.159z"  horiz-adv-x="1024" />

    
    <glyph glyph-name="arrow-down" unicode="&#58881;" d="M511.95560201 421.71526062l97.52870432-97.52703523c4.09596523-4.09930343 10.74431435-4.09930343 14.84061341 0 4.09963725 4.09596523 4.09963725 10.74431435 0 14.84061338l-104.94884412 104.94884414c-4.09596523 4.09930343-10.74431435 4.09930343-14.84061341-1e-8l-104.94851028-104.94884413c-2.04965172-2.04831643-3.07481138-4.73456193-3.07481141-7.42013978s1.02515967-5.37182336 3.0748114-7.42013977c4.09596523-4.09930343 10.74431435-4.09930343 14.84061338 0l97.52837053 97.52703522z"  horiz-adv-x="1024" />

    
    <glyph glyph-name="arrow" unicode="&#58882;" d="M512.03902167 350.85182172l-85.71858778 85.71712081c-3.59996944 3.60290341-9.44324503 3.60290341-13.04350788 0-3.6031968-3.59996944-3.6031968-9.44324503 0-13.04350786l92.24019503-92.24019503c3.59996944-3.60290341 9.44324503-3.60290341 13.04350788 0l92.23990161 92.24019503c1.80145171 1.80027811 2.70247094 4.16123607 2.70247096 6.52160724s-0.90101924 4.72132912-2.70247096 6.52160721c-3.59996944 3.60290341-9.44324503 3.60290341-13.04350785 0l-85.7182944-85.7171208z"  horiz-adv-x="1024" />

    
    <glyph glyph-name="shangsanjiao-copy" unicode="&#58880;" d="M705.4558566972556 525.0218974888267l-187.4958225926094-256.17942746976024-187.4421178399642 256.17942746976036z"  horiz-adv-x="1000" />

    
    <glyph glyph-name="yinpinshangyiquxiayiqu" unicode="&#58915;" d="M885.5813711822178 779.795511211892l-3.410605131648481e-13-810.1328657092466c-2.220446049250313e-15-7.500561350466111-3.552713678800501e-15-11.249810027714787-3.749248677248681-18.752435374149655-1.3322676295501878e-15-3.7492486772486773-2.220446049250313e-15-7.500561350466111-3.7492486772486795-7.500561350466109-11.24981002771479-18.752435374149655-26.25299672461578-30.005341395817574-45.00852809271857-30.005341395817567l-3.7492486772486773 1.3322676295501878e-15c-3.7492486772486773 1.3322676295501878e-15-7.500561350466111 2.220446049250313e-15-15.004218694885356 3.7492486772486826-3.7492486772486773 1.3322676295501878e-15-7.500561350466109 3.7492486772486795-11.249810027714787 3.7492486772486817l-592.5980105820104 378.8124041320233-8.526512829121202e-14-303.80059863945576c-1.4210854715202004e-14-45.008528092718564-33.753558075081905-86.26471151423533-75.01180549256739-86.2647115142353s-75.01180549256738 37.50796674225247-75.01180549256735 86.26471151423533l2.8421709430404007e-13 761.3761209372637c1.4210854715202004e-14 45.008528092718564 33.753558075081905 86.26471151423533 75.01180549256739 86.2647115142353s75.01180549256738-37.50796674225247 75.01180549256735-86.26471151423533l-8.526512829121202e-14-303.80059863945576 592.5980105820106 382.56371680524046c3.7492486772486773-1.3322676295501878e-15 7.5005613504661115 3.7492486772486746 11.249810027714787 3.749248677248673s7.5005613504661115 3.7492486772486746 15.00421869488536 3.7492486772486737l3.7492486772486773-1.3322676295501878e-15c18.752435374149663-5.329070518200751e-15 37.50796674225244-11.249810027714796 45.00852809271855-30.005341395817602-1.3322676295501878e-15-3.7492486772486773-1.3322676295501878e-15-3.7492486772486773 3.7492486772486746-7.5005613504661115l-1.3322676295501878e-15-3.7492486772486773c3.7492486772486746-7.5005613504661115 3.749248677248673-11.249810027714787 3.749248677248673-18.752435374149663-3.749248677248678-3.749248677248676-1.3322676295501878e-15-3.7492486772486773-1.3322676295501878e-15-3.7492486772486773zM773.0615989473979 78.42594507432591l1.7053025658242404e-13 596.349323255228-461.32683497102545-296.3000372889894 461.3268349710252-300.0503179642228z"  horiz-adv-x="1098" />

    
    <glyph glyph-name="yinpinshangyiquxiayiqu-copy" unicode="&#58918;" d="M138.4186288177824-11.795511211892176l0 810.1328657092466c0 7.500561350466111-8.881784197001252e-16 11.249810027714787 3.7492486772486746 18.752435374149655 2.220446049250313e-16 3.7492486772486773 0 7.500561350466111 3.7492486772486764 7.500561350466109 11.249810027714785 18.75243537414966 26.252996724615773 30.00534139581758 45.00852809271856 30.00534139581758l3.7492486772486773-2.220446049250313e-16c3.7492486772486773-2.220446049250313e-16 7.500561350466111 0 15.004218694885356-3.7492486772486773 3.7492486772486773-2.220446049250313e-16 7.500561350466109-3.7492486772486764 11.249810027714787-3.7492486772486773l592.5980105820104-378.8124041320231 0 303.80059863945576c-3.552713678800501e-15 45.008528092718564 33.753558075081884 86.26471151423533 75.01180549256739 86.2647115142353s75.01180549256739-37.50796674225245 75.01180549256738-86.2647115142353l-5.684341886080802e-14-761.3761209372637c3.552713678800501e-15-45.008528092718564-33.753558075081884-86.26471151423533-75.01180549256739-86.2647115142353s-75.01180549256739 37.50796674225245-75.01180549256738 86.2647115142353l0 303.80059863945576-592.5980105820105-382.56371680524063c-3.7492486772486773 2.220446049250313e-16-7.50056135046611-3.749248677248677-11.249810027714787-3.7492486772486764s-7.50056135046611-3.749248677248677-15.004218694885358-3.7492486772486773l-3.7492486772486773 2.220446049250313e-16c-18.752435374149663 0-37.50796674225244 11.249810027714782-45.008528092718564 30.005341395817588 2.220446049250313e-16 3.7492486772486773 2.220446049250313e-16 3.7492486772486773-3.749248677248677 7.50056135046611l2.220446049250313e-16 3.7492486772486773c-3.749248677248677 7.50056135046611-3.7492486772486764 11.249810027714787-3.749248677248678 18.75243537414966 3.7492486772486773 3.749248677248677 2.220446049250313e-16 3.7492486772486773 2.220446049250313e-16 3.7492486772486773zM250.9384010526021 689.574054925674l0-596.349323255228 461.32683497102533 296.30003728898953-461.3268349710253 300.0503179642227z"  horiz-adv-x="1098" />

    
    <glyph glyph-name="zaixiankefu" unicode="&#59017;" d="M955.596 374.887c0 89.557-69.929 163.072-158.047 168.847-10.421 54.271-36.681 104.188-76.494 144.138-52.613 52.796-122.571 81.872-196.985 81.872-74.415 0-144.373-29.076-196.985-81.872-39.812-39.949-66.071-89.866-76.494-144.136-88.13-5.762-158.073-79.284-158.073-168.849 0-93.307 75.913-169.221 169.222-169.221h16.041v293.65c4.756 132.235 113.4 238.346 246.29 238.346 132.658 0 241.156-105.743 246.265-237.658v-294.338h1.202c-30.271-61.109-86.146-107.348-151.863-125.158-8.252 40.123-43.845 70.387-86.375 70.387-48.623 0-88.18-39.557-88.18-88.178s39.557-88.18 88.18-88.18c41.827 0 78.179 29.721 86.438 70.67 0.153 0.766 0.271 1.535 0.404 2.305 41.983 9.976 81.327 30.123 114.177 58.545 31.812 27.525 56.922 62.254 73.068 100.912 83.427 10.379 148.209 81.724 148.209 167.918z m-830.998 0c0 70.198 53.007 128.246 121.1 136.211v-11.171c-0.107-3.207-0.182-6.42-0.182-9.645h0.182v-251.601c-68.093 7.964-121.1 66.012-121.1 136.206z m463.687-323.338c-5.249-26.035-28.376-44.932-54.988-44.932-30.933 0-56.098 25.166-56.098 56.1 0 30.935 25.165 56.099 56.098 56.099 30.934 0 56.098-25.164 56.098-56.099 0-3.762-0.374-7.52-1.11-11.168z m214.129 187.133v251.6h0.208a285.4 285.4 0 0 1-0.208 10.36v10.455c68.094-7.965 121.1-66.013 121.1-136.211 0-70.193-53.006-128.241-121.1-136.204z"  horiz-adv-x="1024" />

    
    <glyph glyph-name="shangsanjiao" unicode="&#60092;" d="M512 576l256-320H256l256 320z"  horiz-adv-x="1024" />

    
    <glyph glyph-name="quanbushangpinfenlei" unicode="&#58921;" d="M162.2 645.7H0V807.9h162.1v-162.2z m843.3 32.5H361.6c-10.3 0-18.6 8.3-18.6 18.6v62.6c0 10.3 8.3 18.6 18.6 18.6h643.8c10.3 0 18.6-8.3 18.6-18.6v-62.6c0-10.3-8.3-18.6-18.5-18.6zM162.2 300.3H0V461.2h162.1v-160.9z m843.3 31.1H361.6c-10.3 0-18.6 8.3-18.6 18.6v62.6c0 10.3 8.3 18.6 18.6 18.6h643.8c10.3 0 18.6-8.3 18.6-18.6V350c0-10.2-8.3-18.6-18.5-18.6zM162.2-46.5H0V115.7h162.1v-162.2z m843.3 31.2H361.6c-10.3 0-18.6 8.3-18.6 18.6v62.6c0 10.3 8.3 18.6 18.6 18.6h643.8c10.3 0 18.6-8.3 18.6-18.6v-62.6c0-10.3-8.3-18.6-18.5-18.6z"  horiz-adv-x="1024" />

    
    <glyph glyph-name="fuwu" unicode="&#58950;" d="M683.495611 231.378309c-2.173775 6.441957-8.38204 39.097079-55.812657 31.795313-39.844452-6.126694-50.753009-21.830342-95.019969-10.161184-67.35615 17.756168-88.628718 31.032508-139.613215 30.446073-88.666197-1.025157-152.841053-62.960099-170.467147-89.012326-10.297872 9.05666-25.979474 8.611322-35.701934-1.296328l-9.519634-9.133822c-10.059771-10.242756-9.914264-26.709209 0.339514-36.784412l170.886029-167.742212c10.247165-10.066385 26.711414-9.916469 36.784412 0.335105l9.51743 9.133822c9.228622 9.411607 9.839307 24.021754 1.975357 34.141049 14.658649 0.026456 176.527701 0.319673 197.981049 0.319673 51.570931 0 117.61973 10.070794 176.836351 92.594865 76.679572 106.84786 116.693781 159.055932 113.695471 197.061715-1.660094 21.067536-23.208242 55.863364-64.737038 50.170985-8.648801-1.183891-22.2382-5.90623-39.873113-22.961322-26.235212-25.393039-76.044635-84.349513-97.270906-108.906994z m159.115457 65.277175c-17.030841-29.998532-47.457073-72.0366-107.328472-152.219344-53.186931-71.231907-116.532842-72.37391-156.525005-72.373911-72.230609 0-207.463205 0.357152-231.837701 0.418882l-86.117634 84.532498c19.965217 28.794798 90.846586 104.239772 214.196174 61.317642 62.521376-21.757589 99.528457-15.337678 147.179539-4.464395 17.901674 4.080788 24.160646-10.291258 24.160646-17.645936 0-7.61703-6.574235-24.209148-37.419349-24.209148h-120.245456c-14.65424 0-26.532838-11.880803-26.532838-26.528428 0-14.652035 11.876394-26.532838 26.532838-26.532839h65.153716c41.400928 0 91.031776-5.249247 117.595478 26.532839 13.803249 16.51716 13.413028 18.591726 20.280481 26.528428 35.876101 41.484704 68.224779 83.586708 99.561526 118.281122 10.218505 11.323029 17.628299 17.8664 28.278913 25.767828 15.81388 11.739706 32.553709-2.702888 23.067144-19.405238zM528.425668 739.446334c3.591358 3.728046 6.993117 7.561914 10.703525 11.065086 35.878306 33.874288 78.586585 49.011344 127.619975 44.710092 63.229065-5.551283 117.218485-52.651204 131.696354-115.1351 12.881709-55.589989-0.597457-104.850457-40.633713-145.490785-63.480394-64.439412-127.822802-128.032243-191.869788-191.913881-22.304339-22.247019-54.260591-22.242609-76.483359-0.070548-63.789044 63.643537-127.516357 127.3466-191.278945 191.018797-24.240013 24.206943-39.328567 53.208978-44.249322 87.074448-12.204885 84.00118 44.443331 159.602683 123.038734 172.762176 53.211183 8.911153 99.676168-6.161968 139.141422-42.869218 3.613404-3.359871 7.035005-6.924773 10.566837-10.377238 0.229283-0.222669 0.617299-0.282194 1.74828-0.773829z m-0.780443-59.31583c-1.463881 1.369081-2.760209 2.513289-3.983784 3.732455-12.237955 12.196067-24.193715 24.689759-36.746933 36.552926-27.95924 26.422606-61.346303 37.915393-99.42043 32.405998-63.676607-9.217598-103.419646-71.088605-91.047208-131.744856 4.565809-22.383706 15.134851-41.553048 31.292655-57.688806 63.374571-63.284181 126.729301-126.585999 190.103872-189.874589 1.241212-1.243417 2.491243-2.526517 3.91544-3.534038 3.754501-2.649977 8.075595-2.63234 11.830097 0.017637 1.28751 0.906107 2.416285 2.05252 3.536242 3.170272 63.747155 63.663379 127.708161 127.112908 191.120211 191.106983 28.666929 28.929281 38.526078 64.221153 29.94562 104.036945-10.906352 50.618526-56.044144 86.410851-107.787037 85.771506-31.868066-0.392426-59.498815-11.819073-82.433681-34.04625-12.279843-11.89844-24.235604-24.13419-36.347894-36.206797-1.219166-1.214756-2.522108-2.350146-3.97717-3.699386z"  horiz-adv-x="1055" />

    
    <glyph glyph-name="sousuo" unicode="&#59099;" d="M998.139463 23.895215L788.79213 233.347538a89.773138 89.773138 0 0 1-27.384297 18.133209 415.226009 415.226009 0 1 1-116.420507-116.578491 87.144397 87.144397 0 0 1 18.080216-27.331302l209.452322-209.189348a88.827231 88.827231 0 1 1 125.619599 125.618598zM416.034929 184.256384a296.124766 296.124766 0 1 0 296.123766 296.124766 296.124766 296.124766 0 0 0-296.123766-296.124766z"  horiz-adv-x="1024" />

    
    <glyph glyph-name="gouwuche" unicode="&#58884;" d="M889.515 173.252H402.53a61.158 61.158 0 0 0-60.995 51.047l-57.081 389.294a58.06 58.06 0 0 0 13.7 46.317 62.626 62.626 0 0 0 47.295 21.365h600.82a61.974 61.974 0 0 0 47.134-21.365 58.06 58.06 0 0 0 13.699-46.317l-56.755-389.13a60.995 60.995 0 0 0-60.832-51.211zM345.449 648.983a30.172 30.172 0 0 1-22.67-10.111 25.442 25.442 0 0 1-6.034-20.223L373.5 229.355a28.378 28.378 0 0 1 29.03-23.485h487.31a28.214 28.214 0 0 1 28.541 22.995l56.756 389.294a24.3 24.3 0 0 1-6.035 20.223 29.682 29.682 0 0 1-22.506 10.112zM916.587-66a107.802 107.802 0 1 0 107.802 107.802A107.965 107.965 0 0 0 916.587-66z m0 182.823a75.184 75.184 0 1 1 75.185-75.02 75.184 75.184 0 0 1-75.185 75.02zM367.14-66a107.802 107.802 0 1 0 107.639 107.802A107.965 107.965 0 0 0 367.139-66z m0 182.823a75.184 75.184 0 1 1 75.021-75.02 75.184 75.184 0 0 1-75.021 75.02zM312.179 519.001a16.309 16.309 0 0 0-15.33 13.537L264.23 721.72a68.171 68.171 0 0 1-56.103 56.755L76.352 801.146a16.537 16.537 0 1 0 5.545 32.617l133.08-22.669a99.81 99.81 0 0 0 83.013-84.154l32.618-188.531a16.309 16.309 0 0 0-13.373-18.755 12.069 12.069 0 0 0-5.056-0.653z"  horiz-adv-x="1095" />

    


  </font>
</defs>
</svg>
